<svg xmlns="http://www.w3.org/2000/svg" viewBox="0 0 478.72 121"><defs><style>.cls-1,.cls-3{fill:none;}.cls-2{fill:#e3e3e3;}.cls-3{stroke:#e3e3e3;stroke-miterlimit:10;stroke-width:1.75px;}.cls-4{fill:#dbdbdb;}.cls-5{fill:#fff;}</style></defs><title>loghi UniGe RGB 1.0</title><g id="Layer_1" data-name="Layer 1"><rect class="cls-1" x="0.9" y="4" width="93.39" height="30.14"/><rect class="cls-2" x="52.85" y="4.53" width="41.46" height="9.28"/><polygon class="cls-2" points="0.89 34.14 42.34 34.14 42.34 24.32 0.9 24.32 0.9 13.81 42.34 13.81 42.34 4.54 0.89 4.54 0.89 34.14"/><polygon class="cls-2" points="52.85 24.32 52.85 34.14 94.31 34.14 94.31 13.81 94.29 24.32 52.85 24.32"/><rect class="cls-2" x="42.34" y="4" width="10.51" height="0.54"/><path class="cls-1" d="M94.3,34.82v-.68H.9V39.6l0,3.61L1,47.33l.14,4.38.23,4.4.33,4.19.45,3.79.55,3.39.65,3,.74,2.77.82,2.53.89,2.35.94,2.23,1,2.16,1,2.13,1.1,2.14L11,89l1.29,2.15,1.43,2.17,1.58,2.2,1.76,2.23,2,2.29,2.19,2.34,2.48,2.38,2.81,2.42,3.21,2.44L33.4,112l4.16,2.45,4.71,2.43,5.32,2.41,5.33-2.41,4.71-2.43L61.79,112l3.65-2.45,3.2-2.44,2.82-2.42,2.47-2.38,2.2-2.34,2-2.29,1.76-2.23,1.58-2.2,1.42-2.17L84.15,89l1.18-2.13,1.1-2.14,1-2.13,1-2.16,1-2.23.89-2.35.81-2.53.74-2.77.66-3,.55-3.39.44-3.79.33-4.19.23-4.4.15-4.38.08-4.12,0-3.61V34.82ZM47.59,108.54A35.38,35.38,0,1,1,83,73.17,35.37,35.37,0,0,1,47.59,108.54Z"/><polygon class="cls-3" points="93.86 4.39 93.87 37.08 93.87 39.96 93.84 43.57 93.76 47.68 93.62 52.06 93.39 56.46 93.06 60.64 92.61 64.42 92.06 67.8 91.41 70.84 90.68 73.59 89.86 76.11 88.98 78.45 88.04 80.68 87.05 82.83 86.01 84.96 84.92 87.09 83.74 89.22 82.45 91.36 81.03 93.52 79.46 95.71 77.71 97.94 75.75 100.22 73.56 102.55 71.1 104.93 68.29 107.33 65.1 109.77 61.46 112.21 57.31 114.65 52.61 117.08 47.37 119.45 42.15 117.09 37.45 114.66 33.3 112.22 29.66 109.77 26.47 107.34 23.66 104.93 21.19 102.56 19 100.23 17.05 97.95 15.29 95.72 13.72 93.53 12.3 91.37 11.01 89.22 9.83 87.1 8.74 84.97 7.71 82.83 6.71 80.68 5.77 78.46 4.89 76.12 4.08 73.6 3.34 70.85 2.69 67.81 2.14 64.43 1.69 60.65 1.36 56.46 1.13 52.06 0.99 47.69 0.91 43.57 0.88 39.96 0.88 37.09 0.89 4.54 93.86 4.39"/><polygon class="cls-2" points="51.58 71.49 55.41 72.52 54.2 76.72 53.7 76.66 52.94 76.66 52.53 76.69 52.27 76.7 52.08 76.67 51.92 76.64 51.76 76.59 51.66 76.57 51.54 76.56 51.37 76.59 51.26 76.76 51.26 76.95 51.3 77.08 51.36 77.18 51.42 77.25 51.53 77.35 51.66 77.45 52.03 77.67 52.03 77.67 51.99 77.68 51.69 77.72 51.33 77.74 50.91 77.76 50.53 77.8 50.12 77.87 49.69 77.76 51.58 71.49"/><polygon class="cls-2" points="49.65 78.49 49.68 78.39 49.73 78.3 49.8 78.22 49.89 78.15 50.11 78.08 50.41 78.02 50.62 78 50.92 77.97 51.34 77.95 51.71 77.93 52.02 77.89 52.16 77.86 52.25 77.82 52.27 77.8 52.32 77.76 52.34 77.72 52.34 77.67 52.31 77.61 52.25 77.56 52.14 77.48 51.78 77.28 51.66 77.19 51.58 77.11 51.53 77.06 51.49 76.99 51.47 76.92 51.47 76.83 51.5 76.78 51.55 76.77 51.63 76.78 51.71 76.8 51.88 76.84 52.04 76.88 52.26 76.91 52.54 76.9 52.94 76.88 53.69 76.88 53.87 76.9 54.06 76.92 54.25 79.06 54.09 79.19 53.9 79.32 53.73 79.41 53.41 79.56 53.15 79.67 52.89 79.77 52.54 79.89 52.2 79.99 51.77 80.09 51.44 80.14 51.08 80.16 50.72 80.13 50.33 80.01 50.06 79.83 49.89 79.64 49.74 79.33 49.68 79.13 49.63 78.86 49.63 78.61 49.65 78.49"/><polygon class="cls-2" points="52.32 62.9 52.23 62.86 52.19 62.86 52.12 62.86 51.92 62.88 50.66 63.26 49.94 63.5 48.68 63.72 47.51 63.78 45.99 63.77 43.4 64.06 43.1 64.29 42.27 65.28 41.98 65.69 42.84 65.6 43.45 65.6 46.19 65.68 47.17 65.67 49.48 65.22 53.36 64.27 52.91 63.59 52.32 62.9"/><path class="cls-2" d="M45.92,59.08l.1.5.14.52.11.33.16.44.11.38,0,.15a.2.2,0,0,1,0-.13.22.22,0,0,1,.31,0l.32.23.24.11.13,0,.21,0h.26l.43-.12.21-.09.31-.17.3-.21a.22.22,0,0,1,.31.06.21.21,0,0,1-.06.3l-.33.22-.58.3L48.4,62l-.27.06-.33,0L47.34,62,47,61.83l-.05,0-.28-.23a.17.17,0,0,1-.06-.11l0,.2v.49l0,.35-.23.39H47.5l1.86-.17.4-.1,0-.1,0-.25V62l0-.34.09-.45.16-.5.42-1.44.09-.64,0-.45,0-.4-.07-.27-.14-.31L50.14,57,50,56.91l-.14-.09-.19-.09-.16,0-.2,0h-.19l-.28,0-.31,0H47.48l-.21,0h-.21l-.24,0-.11,0-.13.05-.11.06-.09.06-.09.07-.07.08-.09.11-.07.11-.09.2-.06.21,0,.26,0,.22,0,.5Z"/><path class="cls-2" d="M47.65,37A37.12,37.12,0,1,0,84.77,74.11,37.12,37.12,0,0,0,47.65,37ZM44.32,53.75l.14-.25.21-.23.22-.16.28-.11.25,0,.41,0,.38-.12.31-.15.28-.18.23-.2.18-.22.2-.29.06-.06.26-.19.17-.08.39-.08.28,0,.35.12.25.16.17.18.14.22,0,.07.4.37.34.21.22.1.23.08L51,53l.4,0,.22.07.36.21.2.2.17.3.07.25,0,.25-.06.36-.12.26-.17.23-.18.16-.23.13-.21.07-.17,0,0,0v.22l-.05.17-.06.11-.11,0-.56,0-.72-.09-.57,0H47.39l-.84.09-.66,0-.3.06-.08,0,0,0,0-.09,0-.12,0-.23L45,55.4l-.3-.18-.26-.3-.18-.42v-.43Zm-7.75,51.49.2-1.39.23-1.43.34-2,.34-1.63.6-2.15.51-2.13.43-2.15.53-3.22.55-5,.3-3.46L41,77.22,41.39,74l.44-2.88L41.44,71,41,73.51l-.21,1.37-.28,2.28-.19,1.64L40,80.05l-.34,1-.46,1.07-.18.37-.26.46-.24.36-.23.29-.18.17L38,83.8l-.12.08-.12.07-.17,0-.13,0-.15,0-.12,0-.11-.1-.08-.1-.1-.18-.05-.13-.14-.5-.08-.4,0-.37-.11-.47v-.3l0-.1-.28,0-.48,0-.6.16-.91.38-.18,0-.25,0-.29-.1-.2-.09L33,81.51l-.36-.35-.32-.45-.09-.16-.05-.15-.07-.2,0-.22,0-.2,0-.07.12-.23.21-.25.39-.33.43-.24.27-.1h0l0-.25.09-.17.19-.14.14,0,.15,0h.15l.39.06.48.09V78l0-.26.08-.31.27-.64.31-.55.43-.65.49-.69.61-.85.51-.8.27-.51.48-1.38L39,70.22,39.45,69l.25-.63.25-.53.17-.33.23-.36.16-.21,0,0a.44.44,0,0,1,0-.58l2.06-2.71.64-.45.57-.16L44,62.6l.19-.36.27-.63.22-.65.19-.89.07-.76v-.5l0-.68.12-.69.28-.8.19-.46.65-.07.68-.07.64,0h1.61l1.13.09.78.08,0,.31.23,1,.22,1,.08.53,0,.32V60l0,.2,0,.24,0,.21v.44l.05.29.1.26.12.22.18.17h.06l.45.06.17.08.15.11.27.26L54,63.62l.44.71a.42.42,0,0,1,0,.39.35.35,0,0,1-.12.17l1,1.21,1.28,1.61.2.31.91,2,.92,2.19.46,1.28L59.32,75v.74l-.16.8-.27.89-.42,1.17-.3.68-.63.85-.58.72L56,82.1l-.69.78-.68-6.74-.32.78.64,6.93.6-.61.46-.43.54-.58.21-.18v.66l0,1.88,0,2.88L56.93,91l.23,3.78.23,1.52.38,1.82.32,1.41.42,1.77,1.05,4.14Z"/><polygon class="cls-2" points="35.56 79.99 35.17 79.02 35.02 78.49 34.22 78.36 34.06 78.42 34.04 78.49 34.07 78.68 34.12 78.91 33.63 79.01 33.15 79.26 32.82 79.53 32.54 79.94 32.54 79.96 32.54 80 32.57 80.18 32.77 80.61 33.1 81.01 33.46 81.28 33.6 81.35 33.82 81.42 33.98 81.43 34.21 81.39 35.08 81 35.6 80.88 35.94 80.85 35.79 80.48 35.56 79.99"/></g><g id="Layer_2" data-name="Layer 2"><path class="cls-4" d="M167.38,10.2c0-1.08-.14-1.36-1.14-1.44l-4.49-.5V3.66H180.8v4.6L176,8.84c-1.07.14-1.14.28-1.14,1.36V37.78c0,12.93-7.21,18.75-19.56,18.75-13.63,0-19.19-6.32-19.19-19V10.2c0-1.08-.14-1.36-1.14-1.44l-4.5-.5V3.66H150.4v4.6l-4.78.58c-1.07.14-1.14.28-1.14,1.36V36.35c0,9.12,3.14,13.22,11.27,13.22s11.63-3.38,11.63-13Z"/><path class="cls-4" d="M207.2,55.67V51.15l3.57-.44c1-.14,1.14-.57,1.14-1.43V32.61c0-4.31-.5-7.9-5.07-7.9-3.64,0-7.42,2-9.77,3.74V49.13c0,1.15.07,1.3,1.14,1.44l3.78.5v4.6h-17.7V51l3.43-.43c1-.14,1.14-.36,1.14-1.44V26c0-.79-.21-1.29-.93-1.5L184,23.13l.71-4.6h10.56l.57,3.95.29.08c4-2.73,8.21-4.75,13.34-4.75,7.71,0,10.64,4.89,10.64,13.15V49.13c0,1.15.07,1.3,1.14,1.44l3.92.5v4.6Z"/><path class="cls-4" d="M228.25,55.67V51.15l4.28-.58c1-.14,1.14-.36,1.14-1.44V26c0-.79-.21-1.29-.92-1.5l-3.93-1.37.71-4.6h12.35v30.6c0,1.15.07,1.3,1.14,1.44l4.21.5v4.6Zm8.63-44.18c-3.42,0-5.35-1.94-5.35-5.38S233.46.86,236.88.86s5.36,1.87,5.36,5.25S240.24,11.49,236.88,11.49Z"/><path class="cls-4" d="M263.64,55.67,251.87,25.14c-.29-.86-.64-1-1.5-1.22l-3-.65.93-4.74h16.84v4.74l-4.78.58,8.78,23.92h.28l8.85-23.92-4.71-.58.79-4.74h14.7v4.74l-2.43.44c-.93.14-1.43.28-1.78,1.22L273.13,55.67Z"/><path class="cls-4" d="M321.73,53.16A29.73,29.73,0,0,1,308,56.53c-13.27,0-17.63-8.55-17.63-19.61,0-13,7.5-19.11,16.84-19.11,9,0,15.13,4.82,15.13,17.32,0,.93-.07,2.8-.21,4.16H299.11C299.47,46,302,49.92,309,49.92c3.49,0,6.2-.71,10.49-2.51Zm-7.56-19.83c0-7-3.22-9.27-7.07-9.27-4.07,0-7.56,2.73-7.92,9.27Z"/><path class="cls-4" d="M327.37,55.67V51l3.42-.43c1-.14,1.14-.36,1.14-1.44V26a1.35,1.35,0,0,0-.92-1.5l-3.93-1.37.71-4.6h10.64l.78,5.25.22.07c2.35-3.09,5.7-6,10.49-6a26.18,26.18,0,0,1,5.56.65V30.24L349.06,30l-.86-4.45c-.07-.65-.21-.79-.85-.79-2.71,0-5.78,2.37-7.21,3.74V49.06c0,1.15.14,1.37,1.21,1.44l6.71.57v4.6Z"/><path class="cls-4" d="M380.6,29.24l-.79-4.17a1.06,1.06,0,0,0-.78-1,19.3,19.3,0,0,0-5.14-.71c-4.57,0-6.78,1.65-6.78,4.52,0,3.81,4,4.67,8.49,5.75,5.64,1.36,12,3.09,12,11.28,0,8.47-7,11.63-15.13,11.63-6.13,0-12.13-1.65-13.41-2.51V44.25l5.92.36.72,4.38c.14.58.21.79.85,1A21.1,21.1,0,0,0,373,51c4.43,0,7.14-1.29,7.14-5,0-4-4.57-4.67-9.35-5.75-5.42-1.22-11.13-2.95-11.13-10.56,0-8.69,7.21-11.93,14.91-11.93a36,36,0,0,1,12,2.09v9.7Z"/><path class="cls-4" d="M391.59,55.67V51.15l4.28-.58c1-.14,1.14-.36,1.14-1.44V26c0-.79-.21-1.29-.93-1.5l-3.92-1.37.71-4.6h12.35v30.6c0,1.15.07,1.3,1.14,1.44l4.21.5v4.6Zm8.63-44.18c-3.42,0-5.35-1.94-5.35-5.38S396.8.86,400.22.86s5.35,1.87,5.35,5.25S403.58,11.49,400.22,11.49Z"/><path class="cls-4" d="M440.11,54a26.09,26.09,0,0,1-10.56,2.51c-7.49,0-10.63-3.3-10.63-10.41v-21c0-.43,0-.72-.57-.72h-5.14v-5.1c5.56-.72,7.78-4.52,8.7-10.84h5.21v9.33c0,.51,0,.72.57.72H438v5.89H427.12V44c0,4.46,1.15,6.11,5.14,6.11a19.7,19.7,0,0,0,6.21-1.22Z"/><path class="cls-4" d="M467.51,55.67l-.71-4.24-.22-.07A17.18,17.18,0,0,1,454,56.53c-9,0-10.21-6.17-10.21-10.2,0-7.18,4.42-10.63,13.13-11.35l9.06-.72V30.6c0-4.52-.78-7-6.28-7-3.92,0-6.56.29-6.56,5.25l-7.71-.72c0-9.2,8.35-10.35,14.42-10.35,10.34,0,14.2,3,14.2,12.86V49.13c0,1.15.07,1.3,1.14,1.44l3.5.5v4.6Zm-4-40.51L450.89,4.81,455.81,0l11,12.07ZM466,39.51l-6.78.57c-5.35.51-7,2-7,5.46s1.64,4.6,4.57,4.6c3.49,0,7.06-2.16,9.2-4.31Z"/><path class="cls-4" d="M158.7,120.15l-.67-4.22-.45-.07A17,17,0,0,1,144.92,121c-8.56,0-14.22-5.28-14.22-18.63,0-14.21,7-19.85,15.64-19.85a18.9,18.9,0,0,1,11,3.21V73.6a1.27,1.27,0,0,0-1-1.43l-4.24-1.36.74-4.57H165.7v47.41c0,1.14.08,1.28,1.19,1.43l3.65.5v4.57Zm-1.56-27.63a14.71,14.71,0,0,0-8.64-3.43c-6.41,0-8.94,5.43-8.94,13.07,0,8.78,2.76,12.13,7.75,12.13,3.65,0,7.22-2.14,9.83-4.78Z"/><path class="cls-4" d="M174.12,120.15v-4.5l4.47-.57c1-.15,1.19-.36,1.19-1.43v-23c0-.79-.23-1.28-1-1.5l-4.1-1.36.75-4.56h12.88v30.41c0,1.14.08,1.28,1.19,1.43l4.4.5v4.57Zm9-43.91c-3.58,0-5.59-1.93-5.59-5.36s2-5.21,5.59-5.21,5.58,1.86,5.58,5.21S186.63,76.24,183.13,76.24Z"/><path class="cls-5" d="M261.1,101.23c-.89.07-1.19.28-1.19,1v15.35c-5.66,2.57-13.11,3.42-19.29,3.42-20.33,0-27.33-11.49-27.33-26.84s9.16-26.63,27.93-26.63c5.36,0,12.28,1.28,16.83,4.14V85.16l-8.27-.57-1.12-6.42c-.22-1-.52-1.29-1.19-1.43a28.71,28.71,0,0,0-6.85-.93c-9.61,0-15.34,7-15.34,18.21,0,11.78,5.21,18.77,15.86,18.77a40.92,40.92,0,0,0,6.18-.5c.82-.14,1.19-.35,1.19-1.28v-9.35h-8.26l1-6.43h22.86v5.71Z"/><path class="cls-5" d="M301.39,117.36A36,36,0,0,1,286.12,121c-14.37,0-19.28-8.56-19.28-19.7,0-12.92,8.26-19.06,18.46-19.06,9.83,0,16.39,4.92,16.39,17.27,0,.86-.08,3.36-.15,4.79H278.75c.37,5.07,2.68,8.42,8.79,8.42,2.9,0,6-.64,11.09-2.43ZM290.67,97.51c-.08-6-2.54-7.56-5.59-7.56s-5.81,1.71-6.25,7.56Z"/><path class="cls-5" d="M333.34,120.15V97.09c0-3.43-.22-6.29-3.95-6.29a15.44,15.44,0,0,0-7.74,2.64v19.14c0,1.14.07,1.28,1.19,1.43l3.57.5v5.64H305.86v-5.71l3.35-.43c1-.15,1.19-.36,1.19-1.43v-21c0-.79-.22-1.29-1-1.5l-4-1.36.9-5.78h13l.59,3.71.3.15a22.4,22.4,0,0,1,13.11-4.57c8.12,0,11.24,4.28,11.24,12.13v18.21c0,1.14.08,1.28,1.2,1.43l3.72.5v5.64Z"/><path class="cls-5" d="M352.41,101.8c0-11.85,6.47-19.56,20.1-19.56,13.78,0,19.14,7.85,19.14,18.77,0,12.14-6.4,20-20.11,20S352.41,113,352.41,101.8Zm27.48-.43c0-8.43-2.69-11.42-7.53-11.42s-8.19,2.92-8.19,11.49,2.91,12.07,7.9,12.07S379.89,110.29,379.89,101.37Z"/><path class="cls-5" d="M408.93,120.15,397.09,90.59c-.37-.86-.67-1-1.56-1.21l-3.13-.65L393.59,83h20.18v5.78L409,89.3l7.59,20.35h.52L425,89.3l-4.84-.57,1-5.78h17.2v5.78l-2.68.43c-1,.22-1.49.36-1.86,1.21L422,120.15Z"/><path class="cls-5" d="M464,120.15l-.75-3.86-.37-.07A17.17,17.17,0,0,1,450.34,121c-9.38,0-10.87-6.14-10.87-10.56,0-7.14,4.61-10.43,13.92-11l8.57-.57V94.94c0-3.35-.38-5.64-5-5.64-3.58,0-5.44.5-5.44,4.79L441,93.23c0-9.64,9.16-11,16-11,11.32,0,15.86,2.92,15.86,12.92v17.35c0,1.14.08,1.28,1.2,1.43l3.57.57v5.64Zm-2-15.35-5.07.35c-4.39.29-6,1.36-6,4.22s1.79,3.92,4.25,3.92a12.53,12.53,0,0,0,6.78-2.57Z"/></g></svg>